<svg width="166" height="178" viewBox="0 0 166 178" fill="none" xmlns="http://www.w3.org/2000/svg">
<rect width="166" height="178" rx="23" fill="#B6CBFF"/>
<path d="M27.6666 138.135C26.3986 136.528 25.8498 134.706 26.0205 132.669C26.1911 130.632 27.028 128.931 28.5312 127.567L38.2145 118.667C40.9812 116.194 44.0361 114.308 47.3791 113.008C50.7222 111.707 54.2381 111.06 57.927 111.065C61.5006 111.065 64.959 111.715 68.302 113.015C71.6451 114.316 74.6999 116.199 77.4666 118.667L97.5249 137.023C99.0236 138.383 100.695 139.372 102.54 139.99C104.384 140.608 106.286 140.917 108.246 140.917C110.205 140.917 112.078 140.608 113.862 139.99C115.647 139.372 117.29 138.383 118.794 137.023L128.477 128.123C129.976 126.763 131.675 126.145 133.575 126.269C135.474 126.392 137.061 127.258 138.333 128.865C139.606 130.472 140.152 132.296 139.973 134.338C139.793 136.38 138.958 138.079 137.469 139.433L127.785 148.333C125.019 150.806 121.964 152.66 118.621 153.896C115.278 155.132 111.819 155.75 108.246 155.75C104.557 155.75 101.013 155.132 97.6149 153.896C94.2165 152.66 91.1893 150.806 88.5333 148.333L68.4749 129.977C66.9763 128.617 65.3348 127.628 63.5503 127.01C61.7658 126.392 59.8914 126.083 57.927 126.083C55.9627 126.083 54.0606 126.392 52.2208 127.01C50.381 127.628 48.7094 128.617 47.2062 129.977L37.3499 138.877C35.8513 140.237 34.1798 140.855 32.3354 140.731C30.4909 140.608 28.9347 139.742 27.6666 138.135ZM41.5 103.648V81.3979L34.4104 85.4771C32.7965 86.466 31.0673 86.6835 29.2229 86.1297C27.3784 85.576 25.9951 84.4313 25.0729 82.6958L11.2395 56.9229C10.3173 55.1924 10.1144 53.3085 10.6309 51.2714C11.1473 49.2343 12.2148 47.7188 13.8333 46.725L48.2437 25.4021C49.627 24.5368 51.068 23.7951 52.5666 23.1771C54.0652 22.559 55.6215 22.25 57.2354 22.25C58.8493 22.25 60.2326 22.7766 61.3854 23.8297C62.5381 24.8829 63.4027 26.2105 63.9791 27.8125C65.4777 32.5097 67.8986 36.4653 71.2416 39.6792C74.5847 42.8931 78.5041 44.5 82.9999 44.5C87.4958 44.5 91.3876 42.8931 94.6753 39.6792C97.963 36.4653 100.411 32.5097 102.021 27.8125C102.597 26.2056 103.492 24.878 104.704 23.8297C105.917 22.7815 107.328 22.2549 108.937 22.25C110.547 22.2451 112.075 22.5541 113.523 23.1771C114.971 23.8001 116.382 24.5417 117.756 25.4021L152.167 46.725C153.78 47.7139 154.818 49.1972 155.279 51.175C155.74 53.1528 155.51 55.0069 154.587 56.7375L140.927 82.6958C140.005 84.4264 138.621 85.571 136.777 86.1297C134.933 86.6885 133.203 86.4709 131.59 85.4771L124.5 81.3979V116.998L113.606 127.196C112.684 127.938 111.732 128.526 110.75 128.961C109.767 129.396 108.76 129.611 107.727 129.606C106.805 129.606 105.913 129.329 105.05 128.776C104.188 128.222 103.351 127.633 102.54 127.01L84.2104 110.138C80.5215 106.8 76.4014 104.266 71.8503 102.535C67.2991 100.805 62.6004 99.9396 57.7541 99.9396C54.9875 99.9396 52.2508 100.249 49.544 100.867C46.8373 101.485 44.1559 102.412 41.5 103.648Z" fill="#FCFCFE"/>
</svg>
