<svg width="176" height="176" viewBox="0 0 176 176" fill="none" xmlns="http://www.w3.org/2000/svg">
<g clip-path="url(#clip0_102_492)">
<mask id="mask0_102_492" style="mask-type:luminance" maskUnits="userSpaceOnUse" x="0" y="0" width="176" height="176">
<path d="M0 0H176V176H0V0Z" fill="white"/>
</mask>
<g mask="url(#mask0_102_492)">
<path fill-rule="evenodd" clip-rule="evenodd" d="M176 0H0V176H176V0ZM78.7563 103.316L96.393 93.94C97.2433 93.4878 98.1744 93.2075 99.1331 93.1152C100.092 93.0229 101.059 93.1203 101.98 93.4018C102.901 93.6834 103.758 94.1437 104.501 94.7563C105.244 95.3689 105.859 96.1219 106.311 96.9723L108.687 101.435L78.0963 117.7L75.724 113.234C75.2718 112.384 74.9915 111.453 74.8992 110.494C74.8069 109.535 74.9043 108.568 75.1858 107.647C75.4674 106.726 75.9277 105.869 76.5403 105.126C77.1529 104.383 77.9059 103.768 78.7563 103.316ZM112.787 93.5257L115.163 97.999L140.349 134.864L108.313 151.895L97.2143 129.958L90.673 133.269L101.838 155.342L88.1027 162.642L71.621 121.143L69.2487 116.677C68.3443 114.976 67.7837 113.114 67.5991 111.197C67.4144 109.279 67.6092 107.345 68.1723 105.503C68.7355 103.66 69.656 101.947 70.8813 100.461C72.1065 98.9749 73.6125 97.7445 75.3133 96.8403L80.894 93.874L41.5433 19.8587C41.3173 19.4335 41.1772 18.968 41.131 18.4886C41.0848 18.0093 41.1336 17.5256 41.2743 17.0651C41.5587 16.1351 42.2008 15.3561 43.0595 14.8995C43.9182 14.4429 44.9231 14.3462 45.8531 14.6305C46.3136 14.7713 46.7419 15.0014 47.1134 15.3077C47.485 15.614 47.7926 15.9905 48.0187 16.4157L87.373 90.431L92.9537 87.461C94.6546 86.5567 96.5169 85.9964 98.4344 85.812C100.352 85.6276 102.287 85.8227 104.129 86.3862C105.971 86.9497 107.684 87.8706 109.17 89.0962C110.656 90.3219 111.886 91.8282 112.79 93.5293M59.9903 129.184C60.7377 128.562 61.7016 128.262 62.6702 128.35C63.6387 128.438 64.5325 128.908 65.1548 129.655C65.7772 130.403 66.0772 131.366 65.9889 132.335C65.9005 133.304 65.431 134.197 64.6837 134.82L64.625 134.867C62.5717 136.517 60.236 137.848 57.8637 138.981C52.391 141.606 46.4026 142.978 40.3333 143C39.3609 143 38.4282 142.614 37.7406 141.926C37.053 141.238 36.6667 140.306 36.6667 139.333C36.6667 138.361 37.053 137.428 37.7406 136.741C38.4282 136.053 39.3609 135.667 40.3333 135.667C45.3107 135.643 50.2205 134.512 54.7067 132.356C56.0948 131.696 57.4352 130.94 58.718 130.093C59.1386 129.814 59.5496 129.521 59.95 129.213L59.9903 129.184ZM72.4863 147.99C71.8643 147.243 70.9711 146.774 70.0029 146.685C69.0348 146.596 68.0711 146.896 67.3237 147.517L67.287 147.547L67.0597 147.723C66.847 147.886 66.5121 148.122 66.055 148.43C64.7722 149.277 63.4318 150.033 62.0437 150.693C57.5561 152.848 52.645 153.978 47.6667 154C46.6942 154 45.7616 154.386 45.0739 155.074C44.3863 155.762 44 156.694 44 157.667C44 158.639 44.3863 159.572 45.0739 160.259C45.7616 160.947 46.6942 161.333 47.6667 161.333C53.735 161.31 59.722 159.936 65.1933 157.311C67.5657 156.178 69.8977 154.851 71.9547 153.197L72.0133 153.149C72.7599 152.527 73.2288 151.633 73.3168 150.665C73.4048 149.697 73.1048 148.734 72.4827 147.987" fill="#FFB4B4"/>
</g>
</g>
<defs>
<clipPath id="clip0_102_492">
<rect width="176" height="176" rx="23" fill="white"/>
</clipPath>
</defs>
</svg>
