<svg width="171" height="177" viewBox="0 0 171 177" fill="none" xmlns="http://www.w3.org/2000/svg">
<g clip-path="url(#clip0_105_550)">
<rect width="171" height="177" rx="23" fill="#D8FFC0"/>
<path d="M49.8276 39.1479L59.7433 13.7388C61.3761 9.55576 59.7729 4.64678 56.2104 2.74541C52.6479 0.844042 48.4026 2.71084 46.7698 6.85928L38.9917 26.8063L31.2433 6.89385C29.6105 2.71084 25.3651 0.878612 21.8026 2.74541C18.2401 4.61221 16.637 9.59033 18.2401 13.7388L28.1558 39.1479C25.1276 41.6024 22.7526 45.0249 21.3573 49.0351H16.3105L15.0933 41.879C14.3214 37.3849 10.5808 34.481 6.72139 35.3798C2.86202 36.2786 0.368268 40.6345 1.14014 45.1286L3.51514 58.9567C4.16827 62.8286 7.10733 65.6288 10.4917 65.6288H19.9917V73.6837L8.76983 76.9679C5.94952 77.7976 3.8417 80.494 3.45577 83.8474L1.08077 103.207C0.516705 107.735 3.21827 111.953 7.13702 112.61C11.0558 113.267 14.648 110.121 15.212 105.558L16.9042 91.7294L22.3667 90.1392C25.5433 96.9495 31.8073 101.582 38.9917 101.582C46.1761 101.582 52.4401 96.9495 55.6464 90.1046L61.1089 91.6948L62.8011 105.523C63.3651 110.052 66.9573 113.198 70.8761 112.575C74.7948 111.953 77.4667 107.735 76.9323 103.172L74.5573 83.8128C74.1417 80.4595 72.0339 77.763 69.2433 76.9333L57.9917 73.6837V65.6288H67.4917C70.8761 65.6288 73.8151 62.8286 74.4683 58.9567L76.8433 45.1286C77.6151 40.6345 75.1214 36.2786 71.262 35.3798C67.4026 34.481 63.662 37.3849 62.8901 41.879L61.6433 49.0351H56.5964C55.2011 45.0249 52.8261 41.6024 49.798 39.1479H49.8276ZM148.242 101.063L167.717 84.8153C170.923 82.1534 171.665 76.9679 169.379 73.2343C167.093 69.5007 162.64 68.6364 159.434 71.2983L144.174 84.0202L145.985 62.2755C146.371 57.7122 143.492 53.6675 139.573 53.2181C135.654 52.7687 132.181 56.122 131.795 60.6853L129.479 88.4452C125.828 88.7909 122.295 90.3811 119.356 93.0431L114.992 90.1046L117.01 83.1905C118.257 78.8347 116.268 74.1331 112.557 72.6812C108.846 71.2292 104.779 73.5454 103.532 77.8667L99.6432 91.2108C98.5448 94.9444 99.8808 99.0929 102.82 101.063L111.043 106.595L107.57 113.578L96.437 109.879C93.6464 108.945 90.6479 110.086 88.8667 112.748L78.5058 128.132C76.0714 131.727 76.6058 136.947 79.7229 139.782C82.8401 142.617 87.2933 141.995 89.7276 138.365L97.1495 127.371L102.553 129.169C102.404 136.982 105.818 144.622 112.053 148.805C118.287 152.988 125.679 152.608 131.409 148.563L135.446 153.126L130.964 166.09C129.509 170.342 131.26 175.182 134.912 176.876C138.564 178.57 142.72 176.53 144.174 172.278L150.468 154.129C151.537 150.983 150.884 147.422 148.806 145.071L140.493 135.703L143.937 128.754L152.16 134.285C155.1 136.256 158.84 135.565 161.067 132.592L169.082 121.978C171.665 118.521 171.398 113.301 168.429 110.259C165.46 107.217 160.978 107.563 158.365 111.02L154.239 116.516L149.874 113.578C150.379 109.291 149.815 104.935 148.242 101.063Z" fill="black"/>
</g>
<defs>
<clipPath id="clip0_105_550">
<rect width="171" height="177" rx="23" fill="white"/>
</clipPath>
</defs>
</svg>
