<svg width="84" height="86" viewBox="0 0 84 86" fill="none" xmlns="http://www.w3.org/2000/svg">
<path d="M56 78.8333C50.1667 78.8333 45.2083 76.743 41.125 72.5625C37.0417 68.3819 35 63.3055 35 57.3333C35 51.3611 37.0417 46.2847 41.125 42.1041C45.2083 37.9236 50.1667 35.8333 56 35.8333C61.8333 35.8333 66.7917 37.9236 70.875 42.1041C74.9583 46.2847 77 51.3611 77 57.3333C77 63.3055 74.9583 68.3819 70.875 72.5625C66.7917 76.743 61.8333 78.8333 56 78.8333ZM56 71.6666C59.85 71.6666 63.1458 70.2632 65.8875 67.4562C68.6292 64.6493 70 61.275 70 57.3333C70 53.3916 68.6292 50.0173 65.8875 47.2104C63.1458 44.4034 59.85 43 56 43C52.15 43 48.8542 44.4034 46.1125 47.2104C43.3708 50.0173 42 53.3916 42 57.3333C42 61.275 43.3708 64.6493 46.1125 67.4562C48.8542 70.2632 52.15 71.6666 56 71.6666ZM14 71.6666C12.075 71.6666 10.4277 70.9655 9.058 69.5632C7.68833 68.1609 7.00233 66.4732 7 64.5V37.2666C7 36.7888 7.04433 36.3111 7.133 35.8333C7.22167 35.3555 7.35233 34.8777 7.525 34.4L14.525 17.9166H14C13.0083 17.9166 12.1777 17.5726 11.508 16.8846C10.8383 16.1966 10.5023 15.3462 10.5 14.3333V10.75C10.5 9.73468 10.836 8.88424 11.508 8.19863C12.18 7.51302 13.0107 7.16901 14 7.16663H38.5C39.4917 7.16663 40.3235 7.51063 40.9955 8.19863C41.6675 8.88663 42.0023 9.73707 42 10.75V14.3333C42 15.3486 41.664 16.2002 40.992 16.8882C40.32 17.5762 39.4893 17.919 38.5 17.9166H37.975L43.75 31.5333C42.6417 32.1305 41.5917 32.7576 40.6 33.4145C39.6083 34.0715 38.675 34.818 37.8 35.6541L30.45 17.9166H22.05L14 37.2666V64.5H28.875C29.1667 65.7541 29.5598 66.994 30.0545 68.2195C30.5492 69.445 31.1477 70.594 31.85 71.6666H14ZM56 32.25C53.55 32.25 51.4792 31.384 49.7875 29.652C48.0958 27.9201 47.25 25.8 47.25 23.2916C47.25 20.7833 48.0958 18.6632 49.7875 16.9312C51.4792 15.1993 53.55 14.3333 56 14.3333V32.25ZM56 32.25C56 29.7416 56.8458 27.6215 58.5375 25.8895C60.2292 24.1576 62.3 23.2916 64.75 23.2916C67.2 23.2916 69.2708 24.1576 70.9625 25.8895C72.6542 27.6215 73.5 29.7416 73.5 32.25H56Z" fill="black"/>
</svg>
