<svg width="87" height="86" viewBox="0 0 87 86" fill="none" xmlns="http://www.w3.org/2000/svg">
<path d="M70.6875 10.75H54.375C52.9329 10.75 51.5498 11.3163 50.5301 12.3243C49.5104 13.3323 48.9375 14.6995 48.9375 16.125V69.875C48.9375 71.3006 49.5104 72.6677 50.5301 73.6757C51.5498 74.6837 52.9329 75.25 54.375 75.25H70.6875C72.1296 75.25 73.5127 74.6837 74.5324 73.6757C75.5521 72.6677 76.125 71.3006 76.125 69.875V16.125C76.125 14.6995 75.5521 13.3323 74.5324 12.3243C73.5127 11.3163 72.1296 10.75 70.6875 10.75ZM70.6875 69.875H54.375V59.125H62.5312C63.2523 59.125 63.9438 58.8419 64.4537 58.3379C64.9636 57.8339 65.25 57.1503 65.25 56.4375C65.25 55.7248 64.9636 55.0412 64.4537 54.5372C63.9438 54.0332 63.2523 53.75 62.5312 53.75H54.375V45.6875H62.5312C63.2523 45.6875 63.9438 45.4044 64.4537 44.9004C64.9636 44.3964 65.25 43.7128 65.25 43C65.25 42.2873 64.9636 41.6037 64.4537 41.0997C63.9438 40.5957 63.2523 40.3125 62.5312 40.3125H54.375V32.25H62.5312C63.2523 32.25 63.9438 31.9669 64.4537 31.4629C64.9636 30.9589 65.25 30.2753 65.25 29.5625C65.25 28.8498 64.9636 28.1662 64.4537 27.6622C63.9438 27.1582 63.2523 26.875 62.5312 26.875H54.375V16.125H70.6875V69.875ZM26.3923 8.84863C26.1398 8.59876 25.8399 8.40053 25.5099 8.26528C25.1798 8.13004 24.826 8.06042 24.4688 8.06042C24.1115 8.06042 23.7577 8.13004 23.4276 8.26528C23.0976 8.40053 22.7977 8.59876 22.5452 8.84863L11.6702 19.5986C11.4178 19.8484 11.2177 20.1449 11.0813 20.4711C10.9448 20.7974 10.8747 21.147 10.875 21.5V69.875C10.875 71.3006 11.4479 72.6677 12.4676 73.6757C13.4873 74.6837 14.8704 75.25 16.3125 75.25H32.625C34.0671 75.25 35.4502 74.6837 36.4699 73.6757C37.4896 72.6677 38.0625 71.3006 38.0625 69.875V21.5C38.0628 21.147 37.9927 20.7974 37.8562 20.4711C37.7198 20.1449 37.5197 19.8484 37.2673 19.5986L26.3923 8.84863ZM16.3125 59.125V26.875H21.75V59.125H16.3125ZM27.1875 26.875H32.625V59.125H27.1875V26.875ZM24.4688 14.5495L31.5001 21.5H17.4374L24.4688 14.5495ZM16.3125 69.875V64.5H32.625V69.875H16.3125Z" fill="black"/>
</svg>
